<svg id="Layer_1" data-name="Layer 1" xmlns="http://www.w3.org/2000/svg" xmlns:xlink="http://www.w3.org/1999/xlink" viewBox="0 0 250 250"><defs><style>.cls-1{opacity:0.1;isolation:isolate;}.cls-2{stroke:#cfd0d4;stroke-miterlimit:10;stroke-width:2px;fill:url(#linear-gradient);}.cls-3{fill:url(#linear-gradient-2);}</style><linearGradient id="linear-gradient" x1="29.47" y1="49.65" x2="218.7" y2="238.88" gradientTransform="matrix(1, 0, 0, -1, 0, 252)" gradientUnits="userSpaceOnUse"><stop offset="0" stop-color="#edf1f5"/><stop offset="0.47" stop-color="#fff"/><stop offset="1" stop-color="#edf1f5"/></linearGradient><linearGradient id="linear-gradient-2" x1="124.99" y1="698.74" x2="124.99" y2="548.37" gradientTransform="translate(0 -516)" gradientUnits="userSpaceOnUse"><stop offset="0" stop-color="#093c61"/><stop offset="1" stop-color="#3870c4"/></linearGradient></defs><title>disputelab_app-icon</title><ellipse class="cls-1" cx="125.01" cy="242.41" rx="115.75" ry="5.97"/><rect class="cls-2" x="20.16" y="2" width="209.67" height="209.67" rx="37.61" ry="37.61"/><path class="cls-3" d="M195.51,68.51a18.12,18.12,0,0,0-30.62,15.57h0A18.06,18.06,0,0,1,150.29,105h0a18.43,18.43,0,0,1-6,0h0a18.11,18.11,0,0,0-20.94,20.41h0a18.06,18.06,0,0,1-14.61,20.95h0a17.53,17.53,0,0,1-4.4.23,18.12,18.12,0,0,1-8.1-24.3,17.77,17.77,0,0,1,2.7-4h0a18.08,18.08,0,0,0,3.2-14.9,18.12,18.12,0,0,1,16.14-19.9,18.5,18.5,0,0,1,5.65.3h0a18.11,18.11,0,0,0,15.63-30h0l-.51-.56h0A18.07,18.07,0,0,0,114.2,51.4h0a18.08,18.08,0,0,1-28.59-7.23h0a18.12,18.12,0,1,0-5.87,20.56h0A18.16,18.16,0,0,1,108,70.91a18.08,18.08,0,0,1-17.09,19,16.93,16.93,0,0,1-3.83-.22h0A18.13,18.13,0,0,0,70.68,119.8l.41.42h0l.36.29,1,.88h0a18.19,18.19,0,0,0,5.11,2.85h0a18.07,18.07,0,0,1,7.8,28.44h0l-.46.81-.61.82-.46.76-.4.71-.46.88-.37.7-.35.88-.25.81v10.31h0a1.33,1.33,0,0,0,.4,1.18v.51l.46,1.07.26.56.51.92.4.66.52.72.56.77.5.61.66.76h0l.48.41.66.61.75.62.57.4,1,.61.52.31,1.06.57h.52l1.06.4h.57l1,.31h7.63l1.28-.25h.46l1.35-.41h.41l1.23-.51h.45l1-.57.61-.35.77-.57.71-.51.61-.51.77-.66h0l.4-.46.63-.72.6-.75.46-.62.57-.92.35-.56.51-1,.26-.56.4-1v-.66l.26-.92v-7.24h0v-.3a18.12,18.12,0,0,1,15-20.82,17.92,17.92,0,0,1,6.65.14h0a18,18,0,0,0,20.09-15.76v0a17.94,17.94,0,0,0,0-4.63h0a18.12,18.12,0,0,1,21.59-21h0a18.13,18.13,0,0,0,15-30.65Z"/></svg>