<svg xmlns="http://www.w3.org/2000/svg" xmlns:xlink="http://www.w3.org/1999/xlink" viewBox="0 0 75 75"><defs><linearGradient id="a" x1="15.52" y1="53.06" x2="59.48" y2="9.1" gradientUnits="userSpaceOnUse"><stop offset="0" stop-color="#fff" stop-opacity="0"/><stop offset="1" stop-color="#fff" stop-opacity="0.3"/></linearGradient></defs><title>docs--templates</title><ellipse cx="37.14" cy="70.54" rx="25.36" ry="3.11" style="opacity:0.1"/><circle cx="37.5" cy="31.08" r="31.08" style="fill:#fcad3a"/><rect x="19.01" y="9.91" width="30.04" height="39.71" rx="0.63" ry="0.63" transform="translate(-1.03 1.22) rotate(-2.03)" style="fill:#fff;opacity:0.8"/><g style="opacity:0.5"><rect x="20.76" y="17.43" width="13.84" height="0.51" transform="matrix(1, -0.04, 0.04, 1, -0.61, 0.99)" style="fill:#8a9ba8"/><rect x="35.2" y="17.06" width="6.1" height="0.51" transform="translate(-0.59 1.36) rotate(-2.03)" style="fill:#8a9ba8"/><rect x="41.86" y="16.85" width="4.55" height="0.51" transform="translate(-0.58 1.57) rotate(-2.03)" style="fill:#8a9ba8"/></g><g style="opacity:0.5"><rect x="20.83" y="19.15" width="13.84" height="0.51" transform="translate(-0.67 0.99) rotate(-2.03)" style="fill:#8a9ba8"/><rect x="35.26" y="18.77" width="6.1" height="0.51" transform="translate(-0.65 1.37) rotate(-2.03)" style="fill:#8a9ba8"/><rect x="41.92" y="18.56" width="4.55" height="0.51" transform="translate(-0.64 1.57) rotate(-2.03)" style="fill:#8a9ba8"/></g><g style="opacity:0.5"><rect x="20.89" y="20.86" width="13.84" height="0.51" transform="translate(-0.73 1) rotate(-2.03)" style="fill:#8a9ba8"/><rect x="35.32" y="20.49" width="6.1" height="0.51" transform="translate(-0.71 1.37) rotate(-2.03)" style="fill:#8a9ba8"/><rect x="41.98" y="20.28" width="4.55" height="0.51" transform="translate(-0.7 1.58) rotate(-2.03)" style="fill:#8a9ba8"/></g><g style="opacity:0.5"><rect x="20.95" y="22.57" width="13.84" height="0.51" transform="translate(-0.79 1) rotate(-2.03)" style="fill:#8a9ba8"/><rect x="35.38" y="22.2" width="6.1" height="0.51" transform="translate(-0.77 1.37) rotate(-2.03)" style="fill:#8a9ba8"/><rect x="42.04" y="21.99" width="4.55" height="0.51" transform="translate(-0.76 1.58) rotate(-2.03)" style="fill:#8a9ba8"/></g><g style="opacity:0.5"><rect x="21.01" y="24.29" width="13.84" height="0.51" transform="translate(-0.85 1) rotate(-2.03)" style="fill:#8a9ba8"/><rect x="35.44" y="23.91" width="6.1" height="0.51" transform="translate(-0.83 1.38) rotate(-2.03)" style="fill:#8a9ba8"/><rect x="42.1" y="23.71" width="4.55" height="0.51" transform="translate(-0.82 1.58) rotate(-2.03)" style="fill:#8a9ba8"/></g><g style="opacity:0.5"><rect x="21.07" y="26" width="13.84" height="0.51" transform="translate(-0.91 1.01) rotate(-2.03)" style="fill:#8a9ba8"/><rect x="35.5" y="25.63" width="6.1" height="0.51" transform="translate(-0.89 1.38) rotate(-2.03)" style="fill:#8a9ba8"/><rect x="42.16" y="25.42" width="4.55" height="0.51" transform="translate(-0.88 1.59) rotate(-2.03)" style="fill:#8a9ba8"/></g><g style="opacity:0.5"><rect x="21.13" y="27.71" width="13.84" height="0.51" transform="translate(-0.97 1.01) rotate(-2.03)" style="fill:#8a9ba8"/><rect x="35.56" y="27.34" width="6.1" height="0.51" transform="translate(-0.95 1.38) rotate(-2.03)" style="fill:#8a9ba8"/><rect x="42.22" y="27.13" width="4.55" height="0.51" transform="translate(-0.94 1.59) rotate(-2.03)" style="fill:#8a9ba8"/></g><g style="opacity:0.5"><rect x="21.19" y="29.43" width="13.84" height="0.51" transform="matrix(1, -0.04, 0.04, 1, -1.03, 1.01)" style="fill:#8a9ba8"/><rect x="35.62" y="29.05" width="6.1" height="0.51" transform="translate(-1.01 1.39) rotate(-2.03)" style="fill:#8a9ba8"/><rect x="42.28" y="28.85" width="4.55" height="0.51" transform="translate(-1 1.59) rotate(-2.03)" style="fill:#8a9ba8"/></g><g style="opacity:0.5"><rect x="21.25" y="31.14" width="13.84" height="0.51" transform="translate(-1.09 1.02) rotate(-2.03)" style="fill:#8a9ba8"/><rect x="35.68" y="30.77" width="6.1" height="0.51" transform="translate(-1.07 1.39) rotate(-2.03)" style="fill:#8a9ba8"/><rect x="42.34" y="30.56" width="4.55" height="0.51" transform="matrix(1, -0.04, 0.04, 1, -1.06, 1.6)" style="fill:#8a9ba8"/></g><g style="opacity:0.5"><rect x="21.31" y="32.85" width="13.84" height="0.51" transform="matrix(1, -0.04, 0.04, 1, -1.15, 1.02)" style="fill:#8a9ba8"/><rect x="35.74" y="32.48" width="6.1" height="0.51" transform="translate(-1.13 1.39) rotate(-2.03)" style="fill:#8a9ba8"/><rect x="42.4" y="32.27" width="4.55" height="0.51" transform="translate(-1.12 1.6) rotate(-2.03)" style="fill:#8a9ba8"/></g><g style="opacity:0.5"><rect x="21.37" y="34.57" width="13.84" height="0.51" transform="translate(-1.21 1.02) rotate(-2.03)" style="fill:#8a9ba8"/><rect x="35.8" y="34.19" width="6.1" height="0.51" transform="translate(-1.19 1.4) rotate(-2.03)" style="fill:#8a9ba8"/><rect x="42.46" y="33.99" width="4.55" height="0.51" transform="translate(-1.18 1.6) rotate(-2.03)" style="fill:#8a9ba8"/></g><g style="opacity:0.5"><rect x="21.43" y="36.28" width="13.84" height="0.51" transform="translate(-1.27 1.03) rotate(-2.03)" style="fill:#8a9ba8"/><rect x="35.87" y="35.91" width="6.1" height="0.51" transform="translate(-1.25 1.4) rotate(-2.03)" style="fill:#8a9ba8"/><rect x="42.52" y="35.7" width="4.55" height="0.51" transform="matrix(1, -0.04, 0.04, 1, -1.24, 1.61)" style="fill:#8a9ba8"/></g><g style="opacity:0.5"><rect x="21.49" y="37.99" width="13.84" height="0.51" transform="translate(-1.33 1.03) rotate(-2.03)" style="fill:#8a9ba8"/><rect x="35.93" y="37.62" width="6.1" height="0.51" transform="translate(-1.31 1.4) rotate(-2.03)" style="fill:#8a9ba8"/><rect x="42.58" y="37.41" width="4.55" height="0.51" transform="translate(-1.3 1.61) rotate(-2.03)" style="fill:#8a9ba8"/></g><g style="opacity:0.5"><rect x="21.55" y="39.71" width="13.84" height="0.51" transform="translate(-1.4 1.03) rotate(-2.03)" style="fill:#8a9ba8"/><rect x="35.99" y="39.33" width="6.1" height="0.51" transform="translate(-1.38 1.4) rotate(-2.03)" style="fill:#8a9ba8"/><rect x="42.64" y="39.13" width="4.55" height="0.51" transform="matrix(1, -0.04, 0.04, 1, -1.36, 1.61)" style="fill:#8a9ba8"/></g><g style="opacity:0.5"><rect x="21.61" y="41.42" width="13.84" height="0.51" transform="translate(-1.46 1.03) rotate(-2.03)" style="fill:#8a9ba8"/><rect x="36.05" y="41.05" width="6.1" height="0.51" transform="translate(-1.44 1.41) rotate(-2.03)" style="fill:#8a9ba8"/><rect x="42.7" y="40.84" width="4.55" height="0.51" transform="translate(-1.42 1.62) rotate(-2.03)" style="fill:#8a9ba8"/></g><rect x="39.49" y="42.85" width="8.02" height="1.58" transform="translate(-1.52 1.57) rotate(-2.03)" style="fill:#5c7080"/><rect x="20.57" y="18.2" width="39.71" height="30.04" rx="0.63" ry="0.63" transform="translate(-2.7 62.85) rotate(-73.91)" style="fill:#fff"/><g style="opacity:0.5"><rect x="37.9" y="12.85" width="0.51" height="13.84" transform="translate(8.58 50.94) rotate(-73.91)" style="fill:#8a9ba8"/><rect x="48.05" y="19.65" width="0.51" height="6.1" transform="translate(13.1 62.82) rotate(-73.91)" style="fill:#8a9ba8"/><rect x="53.71" y="22.05" width="0.51" height="4.55" transform="translate(15.63 69.43) rotate(-73.91)" style="fill:#8a9ba8"/></g><g style="opacity:0.5"><rect x="37.42" y="14.5" width="0.51" height="13.84" transform="translate(6.65 51.68) rotate(-73.91)" style="fill:#8a9ba8"/><rect x="47.58" y="21.3" width="0.51" height="6.1" transform="translate(11.18 63.55) rotate(-73.91)" style="fill:#8a9ba8"/><rect x="53.23" y="23.7" width="0.51" height="4.55" transform="translate(13.7 70.17) rotate(-73.91)" style="fill:#8a9ba8"/></g><g style="opacity:0.5"><rect x="36.95" y="16.14" width="0.51" height="13.84" transform="translate(4.73 52.41) rotate(-73.91)" style="fill:#8a9ba8"/><rect x="47.1" y="22.94" width="0.51" height="6.1" transform="translate(9.25 64.29) rotate(-73.91)" style="fill:#8a9ba8"/><rect x="52.76" y="25.35" width="0.51" height="4.55" transform="translate(11.77 70.9) rotate(-73.91)" style="fill:#8a9ba8"/></g><g style="opacity:0.5"><rect x="36.47" y="17.79" width="0.51" height="13.84" transform="matrix(0.28, -0.96, 0.96, 0.28, 2.8, 53.14)" style="fill:#8a9ba8"/><rect x="46.63" y="24.59" width="0.51" height="6.1" transform="translate(7.33 65.02) rotate(-73.91)" style="fill:#8a9ba8"/><rect x="52.28" y="27" width="0.51" height="4.55" transform="translate(9.85 71.63) rotate(-73.91)" style="fill:#8a9ba8"/></g><g style="opacity:0.5"><rect x="35.99" y="19.44" width="0.51" height="13.84" transform="matrix(0.28, -0.96, 0.96, 0.28, 0.87, 53.88)" style="fill:#8a9ba8"/><rect x="46.15" y="26.24" width="0.51" height="6.1" transform="translate(5.4 65.75) rotate(-73.91)" style="fill:#8a9ba8"/><rect x="51.81" y="28.64" width="0.51" height="4.55" transform="translate(7.92 72.37) rotate(-73.91)" style="fill:#8a9ba8"/></g><g style="opacity:0.5"><rect x="35.52" y="21.08" width="0.51" height="13.84" transform="translate(-1.05 54.61) rotate(-73.91)" style="fill:#8a9ba8"/><rect x="45.68" y="27.88" width="0.51" height="6.1" transform="translate(3.47 66.49) rotate(-73.91)" style="fill:#8a9ba8"/><rect x="51.33" y="30.29" width="0.51" height="4.55" transform="translate(5.99 73.1) rotate(-73.91)" style="fill:#8a9ba8"/></g><g style="opacity:0.5"><rect x="35.04" y="22.73" width="0.51" height="13.84" transform="translate(-2.98 55.35) rotate(-73.91)" style="fill:#8a9ba8"/><rect x="45.2" y="29.53" width="0.51" height="6.1" transform="translate(1.55 67.22) rotate(-73.91)" style="fill:#8a9ba8"/><rect x="50.86" y="31.94" width="0.51" height="4.55" transform="matrix(0.28, -0.96, 0.96, 0.28, 4.07, 73.84)" style="fill:#8a9ba8"/></g><g style="opacity:0.5"><rect x="34.57" y="24.38" width="0.51" height="13.84" transform="translate(-4.9 56.08) rotate(-73.91)" style="fill:#8a9ba8"/><rect x="44.72" y="31.18" width="0.51" height="6.1" transform="translate(-0.38 67.96) rotate(-73.91)" style="fill:#8a9ba8"/><rect x="50.38" y="33.59" width="0.51" height="4.55" transform="translate(2.14 74.57) rotate(-73.91)" style="fill:#8a9ba8"/></g><g style="opacity:0.5"><rect x="34.09" y="26.03" width="0.51" height="13.84" transform="matrix(0.28, -0.96, 0.96, 0.28, -6.83, 56.81)" style="fill:#8a9ba8"/><rect x="44.25" y="32.83" width="0.51" height="6.1" transform="translate(-2.3 68.69) rotate(-73.91)" style="fill:#8a9ba8"/><rect x="49.91" y="35.23" width="0.51" height="4.55" transform="translate(0.22 75.3) rotate(-73.91)" style="fill:#8a9ba8"/></g><g style="opacity:0.5"><rect x="33.62" y="27.67" width="0.51" height="13.84" transform="translate(-8.76 57.55) rotate(-73.91)" style="fill:#8a9ba8"/><rect x="43.77" y="34.47" width="0.51" height="6.1" transform="translate(-4.23 69.42) rotate(-73.91)" style="fill:#8a9ba8"/><rect x="49.43" y="36.88" width="0.51" height="4.55" transform="translate(-1.71 76.04) rotate(-73.91)" style="fill:#8a9ba8"/></g><g style="opacity:0.5"><rect x="33.14" y="29.32" width="0.51" height="13.84" transform="translate(-10.68 58.28) rotate(-73.91)" style="fill:#8a9ba8"/><rect x="43.3" y="36.12" width="0.51" height="6.1" transform="translate(-6.16 70.16) rotate(-73.91)" style="fill:#8a9ba8"/><rect x="48.95" y="38.53" width="0.51" height="4.55" transform="translate(-3.64 76.77) rotate(-73.91)" style="fill:#8a9ba8"/></g><g style="opacity:0.5"><rect x="32.67" y="30.97" width="0.51" height="13.84" transform="matrix(0.28, -0.96, 0.96, 0.28, -12.61, 59.02)" style="fill:#8a9ba8"/><rect x="42.82" y="37.77" width="0.51" height="6.1" transform="translate(-8.08 70.89) rotate(-73.91)" style="fill:#8a9ba8"/><rect x="48.48" y="40.17" width="0.51" height="4.55" transform="translate(-5.56 77.5) rotate(-73.91)" style="fill:#8a9ba8"/></g><g style="opacity:0.5"><rect x="32.19" y="32.62" width="0.51" height="13.84" transform="translate(-14.53 59.75) rotate(-73.91)" style="fill:#8a9ba8"/><rect x="42.35" y="39.42" width="0.51" height="6.1" transform="translate(-10.01 71.63) rotate(-73.91)" style="fill:#8a9ba8"/><rect x="48" y="41.82" width="0.51" height="4.55" transform="translate(-7.49 78.24) rotate(-73.91)" style="fill:#8a9ba8"/></g><g style="opacity:0.5"><rect x="31.72" y="34.26" width="0.51" height="13.84" transform="translate(-16.46 60.48) rotate(-73.91)" style="fill:#8a9ba8"/><rect x="41.87" y="41.06" width="0.51" height="6.1" transform="translate(-11.94 72.36) rotate(-73.91)" style="fill:#8a9ba8"/><rect x="47.53" y="43.47" width="0.51" height="4.55" transform="translate(-9.42 78.97) rotate(-73.91)" style="fill:#8a9ba8"/></g><g style="opacity:0.5"><rect x="31.24" y="35.91" width="0.51" height="13.84" transform="translate(-18.39 61.22) rotate(-73.91)" style="fill:#8a9ba8"/><rect x="41.4" y="42.71" width="0.51" height="6.1" transform="translate(-13.86 73.09) rotate(-73.91)" style="fill:#8a9ba8"/><rect x="47.05" y="45.12" width="0.51" height="4.55" transform="matrix(0.28, -0.96, 0.96, 0.28, -11.34, 79.71)" style="fill:#8a9ba8"/></g><rect x="44.32" y="45.34" width="1.58" height="8.02" transform="translate(-14.82 79.01) rotate(-73.91)" style="fill:#5c7080"/><circle cx="37.5" cy="31.08" r="31.08" style="fill:url(#a)"/></svg>